<?xml version="1.0" encoding="utf-8"?>
<!-- Generator: Adobe Illustrator 18.1.1, SVG Export Plug-In . SVG Version: 6.00 Build 0)  -->
<svg version="1.1" id="Layer_1" xmlns="http://www.w3.org/2000/svg" xmlns:xlink="http://www.w3.org/1999/xlink" x="0px" y="0px"
	 viewBox="0 0 11520 2592" enable-background="new 0 0 11520 2592" xml:space="preserve">
<g>
	<g>
		<linearGradient id="SVGID_1_" gradientUnits="userSpaceOnUse" x1="2396.7925" y1="1135.1804" x2="1873.4813" y2="749.8567">
			<stop  offset="0" style="stop-color:#5B2572"/>
			<stop  offset="1" style="stop-color:#1A0027"/>
		</linearGradient>
		<path fill="url(#SVGID_1_)" d="M2513.4,1921.2c388.4,0,703.2-313.5,703.2-700.2s-314.8-700.2-703.2-700.2
			s-703.2,313.5-703.2,700.2c0,201.1,85.1,382.3,221.4,510C2157.5,1849,2327,1921.2,2513.4,1921.2z M2324.8,717.7
			c257.3,0,441.4,180.6,489.3,404c43.9,205-66.8,421.3-324.1,421.3c-128.6,0-263.7-144.9-385.7-275.8
			c-122-130.9-239.2-255.7-231.1-276.1C1938.4,827.1,2119,717.7,2324.8,717.7z"/>
		<g>
			<linearGradient id="SVGID_2_" gradientUnits="userSpaceOnUse" x1="1246.578" y1="1341.6927" x2="1712.6113" y2="1763.4659">
				<stop  offset="0" style="stop-color:#5B2572"/>
				<stop  offset="1" style="stop-color:#1A0027"/>
			</linearGradient>
			<path fill="url(#SVGID_2_)" d="M1113.3,520.9C722.1,520.9,405,834.3,405,1221s317.1,700.2,708.3,700.2
				c303.6,0,562.7-188.9,663.4-454.3c29-76.5,44.9-159.4,44.9-245.9c0-230.9-113-435.7-287.4-563.2
				C1416.5,571.8,1270.9,520.9,1113.3,520.9z M1303.2,1724.4c-259.2,0-444.6-180.6-492.8-404c-44.2-205,67.3-421.3,326.5-421.3
				c129.6,0,265.6,144.9,388.5,275.8s241,255.7,232.8,276.1C1692.4,1615,1510.6,1724.4,1303.2,1724.4z"/>
			<polygon fill="#5B2572" points="1964.1,1658.2 1367.4,1003.4 1640.2,753.9 2238.9,1406.3 			"/>
			<radialGradient id="SVGID_3_" cx="1810.7871" cy="1221.0476" r="1819.7614" gradientUnits="userSpaceOnUse">
				<stop  offset="0" style="stop-color:#5B2572"/>
				<stop  offset="0.4282" style="stop-color:#592470"/>
				<stop  offset="0.6108" style="stop-color:#532069"/>
				<stop  offset="0.7468" style="stop-color:#481A5C"/>
				<stop  offset="0.8596" style="stop-color:#39124B"/>
				<stop  offset="0.9569" style="stop-color:#250634"/>
				<stop  offset="1" style="stop-color:#1A0027"/>
			</radialGradient>
			<path fill="url(#SVGID_3_)" d="M2513.4,520.9c-304.9,0-564.4,193.2-661.9,463.4l-196.2-213.8c-35.8-42-76.4-79.8-121.1-112.5
				c-117.7-86.1-263.3-137-420.9-137C722.1,520.9,405,834.3,405,1221s317.1,700.2,708.3,700.2c303.6,0,562.7-188.9,663.4-454.3
				c1.3-3.4,2.4-6.9,3.7-10.4l183.7,201.6l0.1-0.1c20.8,25.9,43.3,50.3,67.5,73c125.9,117.9,295.3,190.1,481.8,190.1
				c388.4,0,703.2-313.5,703.2-700.2S2901.8,520.9,2513.4,520.9z M1758.1,1451.1c-65.7,163.9-247.5,273.3-454.9,273.3
				c-259.2,0-444.6-180.6-492.8-404c-44.2-205,67.3-421.3,326.5-421.3c113.7,0,232.3,111.5,342.7,227.3l250.9,275.3
				C1750.1,1426.9,1760.7,1444.5,1758.1,1451.1z M2490,1542.9c-85.4,0-173.5-63.8-258.9-145l-340.7-371.3
				c-12.8-17.8-19.3-30.3-17.1-35.6c65.2-163.9,245.7-273.3,451.6-273.3c257.3,0,441.4,180.6,489.3,404
				C2858,1326.6,2747.3,1542.9,2490,1542.9z"/>
			<path fill="#FFFFFF" d="M2513.4,1957.8c-189.1,0-369.1-71-506.8-200c-24.4-22.9-47.8-48.1-69.6-75h-0.1l-144.6-158.6
				c-119.5,261.2-386.6,433.6-679.1,433.6c-410.8,0-744.9-330.5-744.9-736.8s334.2-736.8,744.9-736.8c160.7,0,313.7,49.8,442.5,144
				c46.6,34.1,89.4,73.8,127,117.8l156.7,170.8c118.9-261,382.7-432.7,674-432.7c407.9,0,739.8,330.5,739.8,736.8
				S2921.3,1957.8,2513.4,1957.8z M1136.8,935.8c-99.9,0-181,35.1-234.5,101.4c-57.1,70.7-78.1,173.7-56.1,275.5
				c40.3,186.7,197.2,375.1,457,375.1c186.9,0,352.2-95.5,416.1-238.9c-2.9-4.6-7.9-12.1-16.8-23.5l-250-274.3
				C1346.1,1039.6,1233.8,935.8,1136.8,935.8z M2257.3,1372.2c96.3,91.4,170.3,134.1,232.7,134.1c98.6,0,178.7-34.7,231.8-100.4
				c57.3-70.8,78.4-174.2,56.4-276.5c-40-186.7-195.7-375-453.5-375c-185.4,0-349.5,95.5-412.8,238.9c1.5,2.5,3.8,5.9,6.9,10.3
				L2257.3,1372.2z"/>
			<path fill="#008081" d="M2513.4,520.9c-304.9,0-564.4,193.2-661.9,463.4l-196.2-213.8c-35.8-42-76.4-79.8-121.1-112.5
				c-117.7-86.1-263.3-137-420.9-137C722.1,520.9,405,834.3,405,1221s317.1,700.2,708.3,700.2c303.6,0,562.7-188.9,663.4-454.3
				c1.3-3.4,2.4-6.9,3.7-10.4l183.7,201.6l0.1-0.1c20.8,25.9,43.3,50.3,67.5,73c125.9,117.9,295.3,190.1,481.8,190.1
				c388.4,0,703.2-313.5,703.2-700.2S2901.8,520.9,2513.4,520.9z M1758.1,1451.1c-65.7,163.9-247.5,273.3-454.9,273.3
				c-259.2,0-444.6-180.6-492.8-404c-44.2-205,67.3-421.3,326.5-421.3c113.7,0,232.3,111.5,342.7,227.3l250.9,275.3
				C1750.1,1426.9,1760.7,1444.5,1758.1,1451.1z M2490,1542.9c-85.4,0-173.5-63.8-258.9-145l-340.7-371.3
				c-12.8-17.8-19.3-30.3-17.1-35.6c65.2-163.9,245.7-273.3,451.6-273.3c257.3,0,441.4,180.6,489.3,404
				C2858,1326.6,2747.3,1542.9,2490,1542.9z"/>
		</g>
	</g>
	<g>
		<path fill="#3A3A3A" d="M0,1917.9V13.9h368.3v1904H0z"/>
		<path fill="#3A3A3A" d="M3283.4,2500.4V601.6c0-42.9,34.8-77.7,77.7-77.7h200c42.4,0,77,34,77.7,76.4l1.6,93.6
			c85-137.9,214.4-206.8,388.2-206.8c86.9,0,167.6,17,242.3,51c74.6,34,138.3,83.1,191.2,147.3c52.9,64.2,94.4,142.6,124.7,235.2
			c30.2,92.6,45.3,197.4,45.3,314.5c0,105.8-12.8,202.6-38.3,290.4c-25.5,87.8-62.8,163.9-111.9,228.1
			c-49.1,64.2-109.1,113.8-179.9,148.8c-70.8,34.9-151.6,52.4-242.2,52.4c-171.9,0-309.8-72.7-413.7-218.2v763.8
			c0,42.9-34.8,77.7-77.7,77.7h-207.2C3318.2,2578.1,3283.4,2543.3,3283.4,2500.4z M3940.7,1640.3c211.5,0,317.3-143.5,317.3-430.7
			c0-124.7-29.3-226.2-87.8-304.6c-58.6-78.4-134.1-117.6-226.7-117.6c-88.8,0-162.9,36.8-222.4,110.5c-59.5,73.7-89.2,170-89.2,289
			C3631.9,1489.2,3734.8,1640.3,3940.7,1640.3z"/>
		<path fill="#3A3A3A" d="M5040.7,1317.2c5.7,105.8,36.4,189.8,92.1,252.2c55.7,62.3,128.9,93.5,219.6,93.5
			c60.4,0,113.8-13.7,160.1-41.1c36.6-21.6,62.8-50.1,78.8-85.3c8-17.6,25-29.4,44.4-29.4h277.8c34,0,57.5,34.4,44.8,65.9
			c-45.1,111.9-113,200.5-203.5,265.6c-107.7,77.5-236.1,116.2-385.3,116.2c-464.7,0-697-253.1-697-759.3
			c0-107.7,15.1-204.9,45.3-291.8c30.2-86.9,74.1-161.5,131.8-223.8c57.6-62.3,127.9-110,211.1-143.1c83.1-33,178.5-49.6,286.2-49.6
			c215.3,0,378.3,69,488.8,206.8c110.5,137.9,165.8,345.7,165.8,623.3H5040.7z M5621.5,1084.9c-1.9-51-10.9-95.8-26.9-134.6
			c-16.1-38.7-37.3-70.8-63.7-96.3c-26.5-25.5-56.7-44.4-90.7-56.7c-34-12.3-69-18.4-104.8-18.4c-73.7,0-137.4,26.9-191.3,80.7
			c-53.8,53.8-84.6,128.9-92.1,225.3H5621.5z"/>
		<path fill="#3A3A3A" d="M6043.2,1917.9v-1394h345.7v165.9c30.2-47.5,61.9-84.7,94.9-111.3c33-26.7,67-47.1,102-61.4
			c34.9-14.3,70.3-23.3,106.3-27.1c35.9-3.8,72.7-5.7,110.5-5.7l0,0c26.6,0,48.2,21.6,48.2,48.2v277.1c0,28.3-24.3,50.2-52.6,47.9
			c-15.8-1.3-31.5-1.9-47.3-2c-187.3-0.7-339.3,151.4-339.3,338.7v723.8H6043.2z"/>
		<path fill="#008081" d="M7801.5,946.1c-33.7,0-63-21.9-73.9-53.7c-12.8-37.3-32.6-66.2-59.6-86.6c-38.7-29.3-97.8-43.9-177.1-43.9
			c-75.6,0-132.7,9-171.4,26.9c-38.7,18-58.1,48.7-58.1,92.1c0,37.8,19.3,68,58.1,90.7c38.7,22.7,94.9,44.4,168.6,65.2
			c120.9,34,222.9,62.8,306,86.4c83.1,23.6,149.7,51.5,199.8,83.6c50,32.1,85.9,72.2,107.7,120.4c21.7,48.2,32.6,112.9,32.6,194.1
			c0,124.7-52,228.1-155.8,310.3c-103.9,82.2-257.8,123.3-461.8,123.3c-100.1,0-190.8-11.3-272-34c-81.2-22.7-150.7-55.2-208.2-97.7
			c-57.6-42.5-102-93.5-133.2-153c-17.1-32.7-29.8-67.6-38.1-104.5c-10.9-48.8,25.8-95.2,75.8-95.2h224.8c35,0,65.6,23.4,74.9,57.1
			c11,40.1,34.6,72.7,70.7,98c51.9,36.4,119.4,54.5,202.6,54.5c69.9,0,129.8-10.9,179.9-32.7c50-21.8,75.1-55.4,75.1-100.8
			c0-51.1-18.4-88-55.2-110.8c-36.8-22.7-93.1-42.6-168.6-59.6c-136-30.3-245.6-62-328.7-95.1c-83.1-33.1-147.8-69.6-194.1-109.4
			c-46.3-39.8-77.5-83.3-93.5-130.6c-16.1-47.3-24.1-100.4-24.1-159.1c0-53,10.8-103.1,32.6-150.5c21.7-47.3,56.2-89,103.4-124.9
			c47.2-36,108.6-64.9,184.2-86.6c75.5-21.8,168.1-32.7,277.7-32.7c200.2,0,346.6,40.6,439.2,121.8
			c71.1,62.5,117.7,143.4,139.8,242.7c10.8,48.5-26.3,94.5-75.9,94.5H7801.5z"/>
		<path fill="#008081" d="M8849.6,1954.7c-113.2,0-214-18-302.6-53.9c-88.6-35.9-163.5-86.1-224.8-150.5
			c-61.3-64.3-107.9-141.9-139.9-232.8c-32.1-90.8-48.1-190.2-48.1-298.1c0-109.7,16.5-210.1,49.5-300.9
			c33-90.8,80.6-168.4,142.8-232.8c62.2-64.3,137.1-114,224.8-149c87.7-35,187.1-52.6,298.3-52.6c109.3,0,207.3,17.5,294,52.6
			c86.7,35,160.7,84.2,222,147.6c61.3,63.4,108.4,140.5,141.4,231.4c33,90.8,49.5,192.1,49.5,303.7c0,111.6-16.5,212.5-49.5,302.3
			c-33,89.9-80.1,167-141.4,231.4c-61.3,64.4-135.7,114-223.4,149.1C9054.6,1937.2,8957.1,1954.7,8849.6,1954.7z M8851,1645.9
			c224.8,0,337.2-141.7,337.2-425c0-281.4-112.4-422.2-337.2-422.2c-224.8,0-337.2,140.7-337.2,422.2
			C8513.9,1504.2,8626.2,1645.9,8851,1645.9z"/>
		<path fill="#008081" d="M11443.2,784.6c42.4,0,76.8-34.4,76.8-76.8v-107c0-42.4-34.4-76.8-76.8-76.8H10755V90.7
			c0-42.4-34.4-76.8-76.8-76.8h-211.9c-42.4,0-76.8,34.4-76.8,76.8v433.2h-308.8c0-39.7,3.3-73.2,9.9-100.6
			c6.6-27.4,18.4-49.6,35.4-66.6c17-17,40.1-28.8,69.4-35.4c13.3-3,28.4-5.3,45.3-6.9c39.4-3.8,69.4-36.9,69.4-76.4V93.2
			c0-44.1-37.2-79.6-81.2-76.7c-342.5,22.4-513.8,191.5-513.8,507.5h-130c-42.4,0-76.8,34.4-76.8,76.8v107
			c0,42.4,34.4,76.8,76.8,76.8h130v1056.5c0,42.4,34.4,76.8,76.8,76.8h211.9c42.4,0,76.8-34.4,76.8-76.8V784.6h308.8v609.2
			c0,75.6,10.4,147.3,31.1,215.3c20.7,68,54.1,127.5,100.3,178.5c46.2,51,105.1,91.6,176.6,121.8s158.3,45.3,260,45.3
			c98,0,182.3-15.1,253-45.3c70.7-30.2,129-71.3,175.2-123.3c46.1-51.9,80-111.4,101.7-178.5c21.6-67,32.5-137.4,32.5-211.1v-319.9
			c0-42.4-34.4-76.8-76.8-76.8h-186.4c-42.4,0-76.8,34.4-76.8,76.8v285.9c0,86.9-17.4,154-52.1,201.2
			c-34.7,47.2-88.7,70.8-161.9,70.8c-75.1,0-129-24.1-161.9-72.2c-32.8-48.2-49.2-116.6-49.2-205.4V784.6H11443.2z"/>
	</g>
</g>
</svg>
